<mxfile host="app.diagrams.net" agent="Mozilla/5.0 (Macintosh; Intel Mac OS X 10_15_7) AppleWebKit/537.36 (KHTML, like Gecko) Chrome/132.0.0.0 Safari/537.36" version="26.0.4">
  <diagram name="第 1 页" id="c_siNZMOSKpCSEQW-mFb">
    <mxGraphModel dx="916" dy="615" grid="1" gridSize="10" guides="1" tooltips="1" connect="1" arrows="1" fold="1" page="1" pageScale="1" pageWidth="827" pageHeight="1169" math="0" shadow="0">
      <root>
        <mxCell id="0" />
        <mxCell id="1" parent="0" />
        <mxCell id="l5cv7P-VvEzEoRlfT6sX-6" style="edgeStyle=orthogonalEdgeStyle;rounded=0;orthogonalLoop=1;jettySize=auto;html=1;entryX=0;entryY=0.5;entryDx=0;entryDy=0;" edge="1" parent="1" source="l5cv7P-VvEzEoRlfT6sX-1" target="l5cv7P-VvEzEoRlfT6sX-2">
          <mxGeometry relative="1" as="geometry" />
        </mxCell>
        <mxCell id="l5cv7P-VvEzEoRlfT6sX-21" value="视频流+事件" style="edgeLabel;html=1;align=center;verticalAlign=middle;resizable=0;points=[];" vertex="1" connectable="0" parent="l5cv7P-VvEzEoRlfT6sX-6">
          <mxGeometry x="-0.0889" relative="1" as="geometry">
            <mxPoint as="offset" />
          </mxGeometry>
        </mxCell>
        <mxCell id="l5cv7P-VvEzEoRlfT6sX-1" value="客户端" style="rounded=0;whiteSpace=wrap;html=1;" vertex="1" parent="1">
          <mxGeometry x="100" y="215" width="100" height="40" as="geometry" />
        </mxCell>
        <mxCell id="l5cv7P-VvEzEoRlfT6sX-17" style="edgeStyle=orthogonalEdgeStyle;rounded=0;orthogonalLoop=1;jettySize=auto;html=1;entryX=0;entryY=0.5;entryDx=0;entryDy=0;" edge="1" parent="1" source="l5cv7P-VvEzEoRlfT6sX-2" target="l5cv7P-VvEzEoRlfT6sX-7">
          <mxGeometry relative="1" as="geometry" />
        </mxCell>
        <mxCell id="l5cv7P-VvEzEoRlfT6sX-18" value="语音流" style="edgeLabel;html=1;align=center;verticalAlign=middle;resizable=0;points=[];" vertex="1" connectable="0" parent="l5cv7P-VvEzEoRlfT6sX-17">
          <mxGeometry x="-0.1415" relative="1" as="geometry">
            <mxPoint as="offset" />
          </mxGeometry>
        </mxCell>
        <mxCell id="l5cv7P-VvEzEoRlfT6sX-2" value="多媒体后台服务" style="rounded=0;whiteSpace=wrap;html=1;" vertex="1" parent="1">
          <mxGeometry x="310" y="215" width="100" height="40" as="geometry" />
        </mxCell>
        <mxCell id="l5cv7P-VvEzEoRlfT6sX-3" value="客户端" style="rounded=0;whiteSpace=wrap;html=1;" vertex="1" parent="1">
          <mxGeometry x="100" y="340" width="100" height="40" as="geometry" />
        </mxCell>
        <mxCell id="l5cv7P-VvEzEoRlfT6sX-16" value="" style="edgeStyle=orthogonalEdgeStyle;rounded=0;orthogonalLoop=1;jettySize=auto;html=1;" edge="1" parent="1" source="l5cv7P-VvEzEoRlfT6sX-4" target="l5cv7P-VvEzEoRlfT6sX-3">
          <mxGeometry relative="1" as="geometry" />
        </mxCell>
        <mxCell id="l5cv7P-VvEzEoRlfT6sX-22" value="视频流" style="edgeLabel;html=1;align=center;verticalAlign=middle;resizable=0;points=[];" vertex="1" connectable="0" parent="l5cv7P-VvEzEoRlfT6sX-16">
          <mxGeometry x="-0.0222" y="-1" relative="1" as="geometry">
            <mxPoint as="offset" />
          </mxGeometry>
        </mxCell>
        <mxCell id="l5cv7P-VvEzEoRlfT6sX-4" value="多媒体后台服务" style="rounded=0;whiteSpace=wrap;html=1;" vertex="1" parent="1">
          <mxGeometry x="290" y="340" width="100" height="40" as="geometry" />
        </mxCell>
        <mxCell id="l5cv7P-VvEzEoRlfT6sX-15" value="" style="edgeStyle=orthogonalEdgeStyle;rounded=0;orthogonalLoop=1;jettySize=auto;html=1;" edge="1" parent="1" source="l5cv7P-VvEzEoRlfT6sX-5" target="l5cv7P-VvEzEoRlfT6sX-4">
          <mxGeometry relative="1" as="geometry" />
        </mxCell>
        <mxCell id="l5cv7P-VvEzEoRlfT6sX-23" value="视频流" style="edgeLabel;html=1;align=center;verticalAlign=middle;resizable=0;points=[];" vertex="1" connectable="0" parent="l5cv7P-VvEzEoRlfT6sX-15">
          <mxGeometry x="-0.1333" y="-2" relative="1" as="geometry">
            <mxPoint as="offset" />
          </mxGeometry>
        </mxCell>
        <mxCell id="l5cv7P-VvEzEoRlfT6sX-5" value="多媒体数字人服务" style="rounded=0;whiteSpace=wrap;html=1;" vertex="1" parent="1">
          <mxGeometry x="450" y="340" width="100" height="40" as="geometry" />
        </mxCell>
        <mxCell id="l5cv7P-VvEzEoRlfT6sX-14" style="edgeStyle=orthogonalEdgeStyle;rounded=0;orthogonalLoop=1;jettySize=auto;html=1;exitX=0.5;exitY=1;exitDx=0;exitDy=0;entryX=1;entryY=0.5;entryDx=0;entryDy=0;" edge="1" parent="1" source="l5cv7P-VvEzEoRlfT6sX-7" target="l5cv7P-VvEzEoRlfT6sX-5">
          <mxGeometry relative="1" as="geometry" />
        </mxCell>
        <mxCell id="l5cv7P-VvEzEoRlfT6sX-19" value="语音流" style="edgeLabel;html=1;align=center;verticalAlign=middle;resizable=0;points=[];" vertex="1" connectable="0" parent="l5cv7P-VvEzEoRlfT6sX-14">
          <mxGeometry x="-0.2242" y="2" relative="1" as="geometry">
            <mxPoint as="offset" />
          </mxGeometry>
        </mxCell>
        <mxCell id="l5cv7P-VvEzEoRlfT6sX-7" value="" style="rounded=0;whiteSpace=wrap;html=1;" vertex="1" parent="1">
          <mxGeometry x="570" y="170" width="170" height="130" as="geometry" />
        </mxCell>
        <mxCell id="l5cv7P-VvEzEoRlfT6sX-8" value="AI Lab" style="text;html=1;align=center;verticalAlign=middle;resizable=0;points=[];autosize=1;strokeColor=none;fillColor=none;" vertex="1" parent="1">
          <mxGeometry x="625" y="130" width="60" height="30" as="geometry" />
        </mxCell>
        <mxCell id="l5cv7P-VvEzEoRlfT6sX-12" style="edgeStyle=orthogonalEdgeStyle;rounded=0;orthogonalLoop=1;jettySize=auto;html=1;exitX=1;exitY=0.5;exitDx=0;exitDy=0;entryX=0;entryY=0.5;entryDx=0;entryDy=0;" edge="1" parent="1" source="l5cv7P-VvEzEoRlfT6sX-9" target="l5cv7P-VvEzEoRlfT6sX-10">
          <mxGeometry relative="1" as="geometry" />
        </mxCell>
        <mxCell id="l5cv7P-VvEzEoRlfT6sX-9" value="ASR" style="rounded=0;whiteSpace=wrap;html=1;" vertex="1" parent="1">
          <mxGeometry x="580" y="180" width="50" height="40" as="geometry" />
        </mxCell>
        <mxCell id="l5cv7P-VvEzEoRlfT6sX-13" style="edgeStyle=orthogonalEdgeStyle;rounded=0;orthogonalLoop=1;jettySize=auto;html=1;exitX=0.5;exitY=1;exitDx=0;exitDy=0;entryX=0.5;entryY=0;entryDx=0;entryDy=0;" edge="1" parent="1" source="l5cv7P-VvEzEoRlfT6sX-10" target="l5cv7P-VvEzEoRlfT6sX-11">
          <mxGeometry relative="1" as="geometry" />
        </mxCell>
        <mxCell id="l5cv7P-VvEzEoRlfT6sX-10" value="LLM" style="rounded=0;whiteSpace=wrap;html=1;" vertex="1" parent="1">
          <mxGeometry x="660" y="180" width="50" height="40" as="geometry" />
        </mxCell>
        <mxCell id="l5cv7P-VvEzEoRlfT6sX-11" value="TTS" style="rounded=0;whiteSpace=wrap;html=1;" vertex="1" parent="1">
          <mxGeometry x="660" y="250" width="50" height="40" as="geometry" />
        </mxCell>
        <mxCell id="l5cv7P-VvEzEoRlfT6sX-24" value="300ms" style="text;html=1;align=center;verticalAlign=middle;resizable=0;points=[];autosize=1;strokeColor=none;fillColor=none;" vertex="1" parent="1">
          <mxGeometry x="210" y="170" width="60" height="30" as="geometry" />
        </mxCell>
        <mxCell id="l5cv7P-VvEzEoRlfT6sX-26" value="300ms" style="text;html=1;align=center;verticalAlign=middle;resizable=0;points=[];autosize=1;strokeColor=none;fillColor=none;" vertex="1" parent="1">
          <mxGeometry x="210" y="300" width="60" height="30" as="geometry" />
        </mxCell>
        <mxCell id="l5cv7P-VvEzEoRlfT6sX-27" value="200ms" style="text;html=1;align=center;verticalAlign=middle;resizable=0;points=[];autosize=1;strokeColor=none;fillColor=none;" vertex="1" parent="1">
          <mxGeometry x="470" y="300" width="60" height="30" as="geometry" />
        </mxCell>
        <mxCell id="l5cv7P-VvEzEoRlfT6sX-28" value="1-2s" style="text;html=1;align=center;verticalAlign=middle;resizable=0;points=[];autosize=1;strokeColor=none;fillColor=none;" vertex="1" parent="1">
          <mxGeometry x="630" y="100" width="50" height="30" as="geometry" />
        </mxCell>
      </root>
    </mxGraphModel>
  </diagram>
</mxfile>
